<svg width="21" height="20" viewBox="0 0 21 20" fill="none" xmlns="http://www.w3.org/2000/svg">
<path d="M18.6712 8.36788H18V8.33329H10.5V11.6666H15.2096C14.5225 13.607 12.6762 15 10.5 15C7.73875 15 5.5 12.7612 5.5 9.99996C5.5 7.23871 7.73875 4.99996 10.5 4.99996C11.7746 4.99996 12.9342 5.48079 13.8171 6.26621L16.1742 3.90913C14.6858 2.52204 12.695 1.66663 10.5 1.66663C5.89791 1.66663 2.16666 5.39788 2.16666 9.99996C2.16666 14.602 5.89791 18.3333 10.5 18.3333C15.1021 18.3333 18.8333 14.602 18.8333 9.99996C18.8333 9.44121 18.7758 8.89579 18.6712 8.36788Z" fill="#FFC107"/>
<path d="M3.1275 6.12121L5.86542 8.12913C6.60625 6.29496 8.40042 4.99996 10.5 4.99996C11.7746 4.99996 12.9342 5.48079 13.8171 6.26621L16.1742 3.90913C14.6858 2.52204 12.695 1.66663 10.5 1.66663C7.29917 1.66663 4.52334 3.47371 3.1275 6.12121Z" fill="#FF3D00"/>
<path d="M10.5 18.3334C12.6525 18.3334 14.6083 17.5096 16.0871 16.17L13.5079 13.9875C12.6431 14.6452 11.5864 15.0009 10.5 15C8.3325 15 6.49209 13.618 5.79875 11.6892L3.08125 13.783C4.46042 16.4817 7.26125 18.3334 10.5 18.3334Z" fill="#4CAF50"/>
<path d="M18.6713 8.36796H18V8.33337H10.5V11.6667H15.2096C14.8809 12.5902 14.2889 13.3972 13.5067 13.988L13.5079 13.9871L16.0871 16.1696C15.9046 16.3355 18.8333 14.1667 18.8333 10C18.8333 9.44129 18.7758 8.89587 18.6713 8.36796Z" fill="#1976D2"/>
</svg>
