<svg width="20" height="20" viewBox="0 0 20 20" fill="none" xmlns="http://www.w3.org/2000/svg">
<path d="M10.8484 0.75149C10.6234 0.526525 10.3182 0.400146 9.99999 0.400146C9.68179 0.400146 9.37662 0.526525 9.15159 0.75149L0.751588 9.15149C0.532998 9.37781 0.412045 9.68093 0.414779 9.99557C0.417513 10.3102 0.543716 10.6112 0.766206 10.8337C0.988696 11.0562 1.28967 11.1824 1.60431 11.1851C1.91894 11.1878 2.22207 11.0669 2.44839 10.8483L2.79999 10.4967V18.3999C2.79999 18.7181 2.92642 19.0234 3.15146 19.2484C3.3765 19.4735 3.68173 19.5999 3.99999 19.5999H6.39999C6.71825 19.5999 7.02347 19.4735 7.24852 19.2484C7.47356 19.0234 7.59999 18.7181 7.59999 18.3999V15.9999C7.59999 15.6816 7.72642 15.3764 7.95146 15.1514C8.1765 14.9263 8.48173 14.7999 8.79999 14.7999H11.2C11.5182 14.7999 11.8235 14.9263 12.0485 15.1514C12.2736 15.3764 12.4 15.6816 12.4 15.9999V18.3999C12.4 18.7181 12.5264 19.0234 12.7515 19.2484C12.9765 19.4735 13.2817 19.5999 13.6 19.5999H16C16.3182 19.5999 16.6235 19.4735 16.8485 19.2484C17.0736 19.0234 17.2 18.7181 17.2 18.3999V10.4967L17.5516 10.8483C17.7779 11.0669 18.081 11.1878 18.3957 11.1851C18.7103 11.1824 19.0113 11.0562 19.2338 10.8337C19.4563 10.6112 19.5825 10.3102 19.5852 9.99557C19.5879 9.68093 19.467 9.37781 19.2484 9.15149L10.8484 0.75149Z" fill="#0C092A"/>
</svg>
