<svg width="103" height="18" viewBox="0 0 103 18" fill="none" xmlns="http://www.w3.org/2000/svg">
<path d="M0 9.76434C0 9.06606 0.566065 8.5 1.26434 8.5V8.5L5 8.49995H12.6329H16.6222L19.5 8.29995L22.5 7.79995L29 6L33 4.5L39.2894 2.18286C41.4238 1.39649 43.6354 0.837805 45.8872 0.516114L46.0301 0.495707C48.336 0.166284 50.6717 0.0976455 52.9931 0.29109V0.29109C54.6616 0.430135 56.3162 0.704042 57.9405 1.11013L61.5 2L68 4.5L77.5 7.5L80.25 8L85 8.5H100.824V8.5C102.057 8.61327 103 9.64711 103 10.8849V16C103 16.8284 102.328 17.5 101.5 17.5V17.5H1.26434V17.5C0.566065 17.5 0 16.9339 0 16.2357V9.76434Z" fill="white"/>
<circle cx="50" cy="12.2" r="4" fill="#6A5AE0"/>
</svg>
