<svg width="24" height="24" viewBox="0 0 24 24" fill="none" xmlns="http://www.w3.org/2000/svg">
<path fill-rule="evenodd" clip-rule="evenodd" d="M4.87214 4.28997C5.34912 3.84879 6.06846 3.84582 6.5998 4.21976L7.09817 4.57051C7.58306 4.91176 8.21859 4.92333 8.76064 4.683C8.878 4.63097 8.99685 4.58167 9.1171 4.5352C9.67009 4.32149 10.1112 3.86396 10.2128 3.27988L10.3171 2.67985C10.4284 2.03944 10.9396 1.53289 11.5891 1.50789C11.7254 1.50265 11.8624 1.5 12 1.5C12.1376 1.5 12.2746 1.50265 12.4109 1.50789C13.0604 1.53289 13.5716 2.03944 13.6829 2.67985L13.7872 3.27988C13.8888 3.86397 14.3299 4.32149 14.8829 4.5352C15.0032 4.58167 15.122 4.63097 15.2394 4.683C15.7814 4.92333 16.4169 4.91177 16.9018 4.57051L17.4002 4.21976C17.9315 3.84582 18.6509 3.84879 19.1279 4.28997C19.3294 4.47639 19.5236 4.67061 19.7101 4.87215C20.1512 5.34914 20.1542 6.06848 19.7803 6.59982L19.4295 7.09819C19.0882 7.58308 19.0767 8.21861 19.317 8.76065C19.369 8.87801 19.4183 8.99686 19.4648 9.11711C19.6785 9.6701 20.136 10.1112 20.7201 10.2128L21.3202 10.3171C21.9606 10.4284 22.4671 10.9396 22.4921 11.5891C22.4974 11.7254 22.5 11.8624 22.5 12C22.5 12.1376 22.4974 12.2746 22.4921 12.4109C22.4671 13.0605 21.9606 13.5716 21.3202 13.6829L20.7201 13.7873C20.136 13.8888 19.6785 14.3299 19.4648 14.8829C19.4183 15.0032 19.369 15.122 19.317 15.2394C19.0767 15.7814 19.0882 16.4169 19.4295 16.9018L19.7802 17.4002C20.1542 17.9315 20.1512 18.6509 19.71 19.1279C19.5236 19.3294 19.3294 19.5236 19.1278 19.7101C18.6509 20.1512 17.9315 20.1542 17.4002 19.7803L16.9018 19.4295C16.4169 19.0883 15.7814 19.0767 15.2393 19.317C15.122 19.369 15.0031 19.4183 14.8829 19.4648C14.3299 19.6785 13.8888 20.136 13.7872 20.7201L13.6829 21.3202C13.5716 21.9606 13.0604 22.4671 12.4109 22.4921C12.2746 22.4974 12.1376 22.5 12 22.5C11.8624 22.5 11.7254 22.4974 11.5891 22.4921C10.9396 22.4671 10.4284 21.9606 10.3171 21.3202L10.2128 20.7201C10.1112 20.136 9.67008 19.6785 9.1171 19.4648C8.99685 19.4183 8.87801 19.369 8.76065 19.317C8.2186 19.0767 7.58308 19.0883 7.09819 19.4295L6.59982 19.7803C6.06848 20.1542 5.34914 20.1512 4.87216 19.7101C4.67061 19.5236 4.47638 19.3294 4.28996 19.1279C3.84878 18.6509 3.84581 17.9315 4.21976 17.4002L4.5705 16.9018C4.91176 16.4169 4.92332 15.7814 4.68299 15.2394C4.63096 15.122 4.58167 15.0032 4.5352 14.8829C4.32149 14.3299 3.86396 13.8888 3.27988 13.7873L2.67985 13.6829C2.03945 13.5716 1.53289 13.0605 1.50789 12.4109C1.50265 12.2746 1.5 12.1376 1.5 12C1.5 11.8624 1.50265 11.7254 1.50789 11.5891C1.53289 10.9396 2.03944 10.4284 2.67985 10.3171L3.27987 10.2128C3.86396 10.1112 4.32148 9.6701 4.53519 9.11711C4.58166 8.99686 4.63096 8.87801 4.68299 8.76065C4.92332 8.21861 4.91175 7.58308 4.5705 7.09819L4.21975 6.59982C3.8458 6.06848 3.84877 5.34914 4.28995 4.87215C4.47637 4.67061 4.67059 4.47639 4.87214 4.28997ZM16 12C16 14.2091 14.2091 16 12 16C9.79086 16 8 14.2091 8 12C8 9.79087 9.79086 8.00001 12 8.00001C14.2091 8.00001 16 9.79087 16 12Z" fill="white"/>
</svg>
