<svg width="24" height="24" viewBox="0 0 24 24" fill="none" xmlns="http://www.w3.org/2000/svg">
<g clip-path="url(#clip0_66_2105)">
<path d="M6.83333 12H3.16667C2.66041 12 2.25 12.4477 2.25 13V19C2.25 19.5523 2.66041 20 3.16667 20H6.83333C7.33959 20 7.75 19.5523 7.75 19V13C7.75 12.4477 7.33959 12 6.83333 12Z" fill="#0C092A"/>
<path d="M20.8333 8H17.1667C16.6604 8 16.25 8.44772 16.25 9V19C16.25 19.5523 16.6604 20 17.1667 20H20.8333C21.3396 20 21.75 19.5523 21.75 19V9C21.75 8.44772 21.3396 8 20.8333 8Z" fill="#0C092A"/>
<path d="M13.8333 4H10.1667C9.66041 4 9.25 4.44772 9.25 5V19C9.25 19.5523 9.66041 20 10.1667 20H13.8333C14.3396 20 14.75 19.5523 14.75 19V5C14.75 4.44772 14.3396 4 13.8333 4Z" fill="#0C092A"/>
</g>
<defs>
<clipPath id="clip0_66_2105">
<rect width="24" height="24" fill="white"/>
</clipPath>
</defs>
</svg>
